Coordinates
version=1
nRows=19
nColumns=33
inDegrees=yes

Units are S.I. units (second, meters, Newtons, ...)
Angles are in degrees.

endheader
time	ground_thorax_rot_x	ground_thorax_rot_y	ground_thorax_rot_z	ground_thorax_tx	ground_thorax_ty	ground_thorax_tz	clav_prot_r	clav_elev_r	scapula_abduction_r	scapula_elevation_r	scapula_upward_rot_r	scapula_winging_r	shoulder_elv_r	plane_of_elev_r	axial_rot_r	elbow_flexion_r	pro_sup_r	wrist_flex_r	wrist_dev_r	clav_prot_l	clav_elev_l	scapula_abduction_l	scapula_elevation_l	scapula_upward_rot_l	scapula_winging_l	shoulder_elv_l	plane_of_elev_l	axial_rot_l	elbow_flexion_l	pro_sup_l	wrist_flex_l	wrist_dev_l
      4.92000000	     32.47208717	     24.88672680	     31.20674897	   -175.30726686	    807.71354211	      6.33358309	      0.42273224	     43.09083858	     45.00000000	     45.00000000	     14.83665795	   2405.17472467	  -3537.44222862	     19.13362710	   -179.99999979	   1090.17245627	   -132.99528096	     16.49219283	     13.84893686	      8.85752858	    -45.00000000	    -38.05787238	     45.00000000	    -44.64640651	  -2784.61953497	   -454.02400067	    137.70071964	    154.02115415	   2890.27396786	      6.65579600	      8.47784947	    -18.96616351
      4.93000000	     32.33841478	     25.27066766	     31.72443581	   -170.87075937	    805.96344873	      6.40950723	      0.92926294	     43.28264052	     45.00000000	     45.00000000	     14.62290129	   2405.47536371	  -3537.60363043	     18.81242147	   -179.99999979	   1090.25260921	   -134.08111133	     16.01846303	     13.71132995	      8.25638689	    -45.00000000	    -37.86811341	     45.00000000	    -44.79250075	  -2785.04729749	   -454.31374372	    137.85108726	    153.70439003	   2890.10455380	      6.30926754	      8.63990001	    -18.79015944
      4.94000000	     31.88291731	     26.00868924	     32.88051351	   -166.40667983	    804.21438713	      6.49300620	      0.94102536	     43.38417492	     45.00000000	     45.00000000	     13.08279179	   2405.40793211	  -3538.26844068	     19.03413142	   -179.99999979	   1090.27941741	   -134.47677163	     15.80592708	     13.75523943	      8.77246470	    -45.00000000	    -37.85661326	     45.00000000	    -45.00000000	  -2785.03484821	   -454.64850511	    138.11663643	    152.17883259	   2890.21557552	      6.38951659	      8.78359910	    -18.70712640
      4.95000000	     31.56660789	     26.62270990	     33.84349478	   -161.90784684	    802.45671886	      6.58893471	      1.02046334	     43.56039301	     45.00000000	     45.00000000	     11.83273266	   2405.57729922	  -3538.75693486	     19.05932567	   -179.99999979	   1090.30223670	   -134.67524252	     15.60599717	     13.76153922	      9.00703364	    -45.00000000	    -37.73089594	     45.00000000	    -45.00000000	  -2785.12501119	   -455.12949218	    138.32185446	    151.05175938	   2890.04361139	      6.54059719	      9.05142667	    -18.55482727
      4.96000000	     31.34128467	     27.03406840	     34.36542525	   -157.36092753	    800.66237746	      6.70605520	      1.37366803	     43.65529903	     45.00000000	     45.00000000	     11.72831673	   2405.52455995	  -3538.98229925	     18.80250573	   -179.99999979	   1090.34958655	   -134.76162388	     15.24384841	     13.52383299	      8.65984935	    -45.00000000	    -37.68099499	     45.00000000	    -45.00000000	  -2785.47201398	   -455.40880253	    138.56959391	    150.45917238	   2890.10008629	      6.69949019	      9.08861917	    -18.48917565
      4.97000000	     30.97119550	     27.69329951	     35.43962496	   -152.77824024	    798.83473554	      6.84292893	      1.45176529	     43.82640289	     45.00000000	     45.00000000	     10.31954158	   2405.66984441	  -3539.45815682	     18.89150533	   -179.99999979	   1090.35806087	   -134.74275393	     15.09036212	     13.50440464	      8.97260481	    -45.00000000	    -37.50736524	     45.00000000	    -45.00000000	  -2785.49494093	   -455.94567840	    138.77331411	    149.38478734	   2889.82851921	      7.13438194	      9.35461326	    -18.35503602
      4.98000000	     30.70331558	     28.12095591	     36.15099269	   -148.16883217	    796.96633041	      7.00069831	      1.84135935	     43.95739439	     45.00000000	     45.00000000	      9.75202629	   2405.79937061	  -3539.76026455	     18.74128944	   -179.99999979	   1090.42503882	   -134.63715023	     14.79445895	     13.29226029	      8.70998854	    -45.00000000	    -37.43861957	     45.00000000	    -45.00000000	  -2785.77285834	   -456.36119301	    139.08378549	    148.72789940	   2889.76297527	      7.68227106	      9.46789213	    -18.30162750
      4.99000000	     30.74176456	     28.16188615	     36.24621868	   -143.55294628	    795.07586802	      7.17371832	      2.17280411	     44.11786665	     45.00000000	     45.00000000	     10.61848172	   2405.93352633	  -3539.71399918	     18.12363462	   -179.99999979	   1090.39805390	   -134.35156619	     14.44048781	     12.89258024	      7.79146094	    -45.00000000	    -37.16705036	     45.00000000	    -45.00000000	  -2786.26038342	   -456.73271476	    139.18994292	    149.23226969	   2889.57156775	      8.56179225	      9.50208376	    -18.26304307
      5.00000000	     30.14211178	     28.96763662	     37.55469604	   -138.97298190	    793.19335133	      7.35393451	      2.31505534	     44.25670603	     45.00000000	     45.00000000	      8.53373664	   2405.93000268	  -3540.37626254	     18.39927179	   -179.99999979	   1090.45319990	   -134.07178004	     14.31197513	     12.84406608	      8.48801494	    -45.00000000	    -37.23158070	     45.00000000	    -45.00000000	  -2786.19712848	   -457.14207884	    139.51083170	    147.85230905	   2889.56450994	      9.58442476	      9.70859830	    -18.27757983
      5.01000000	     30.07639104	     29.20986811	     37.92198176	   -134.44754258	    791.35318369	      7.53125100	      2.84677732	     44.38603148	     45.00000000	     45.00000000	      8.63061798	   2406.26018164	  -3540.34990557	     17.87508160	   -179.99999979	   1090.41425162	   -133.69288243	     14.00813098	     12.46326459	      7.65756151	    -45.00000000	    -36.90621268	     45.00000000	    -45.00000000	  -2786.64164406	   -457.55372382	    139.65793892	    147.76411080	   2889.30756659	     10.79655530	      9.65342960	    -18.25690260
      5.02000000	     29.49645039	     29.96047663	     39.26757157	   -129.98919543	    789.56925149	      7.70386786	      2.72969120	     44.50603501	     45.00000000	     45.00000000	      6.77794940	   2406.20645179	  -3540.95258707	     18.11726119	   -179.99999979	   1090.44641516	   -133.40608510	     13.94229626	     12.45297475	      8.45587290	    -45.00000000	    -36.84643412	     45.00000000	    -45.00000000	  -2786.54245623	   -458.08789037	    140.00596295	    146.61709240	   2889.15810237	     11.83946859	      9.91286950	    -18.24525367
      5.03000000	     29.20775534	     30.26490549	     39.99249310	   -125.59631075	    787.84714640	      7.87450367	      3.20365212	     44.51647828	     45.00000000	     44.79171746	      5.80018606	   2406.51542454	  -3541.18456416	     18.02560461	   -179.99999979	   1090.40594034	   -133.11530875	     13.79265145	     12.25640419	      8.12818318	    -45.00000000	    -36.68615248	     45.00000000	    -45.00000000	  -2786.65730668	   -458.41972079	    140.29013550	    145.79548506	   2889.11617163	     12.85879135	      9.90886290	    -18.27102745
      5.04000000	     28.92599939	     30.53648395	     40.65347240	   -121.26771675	    786.19631093	      8.04571778	      3.73527148	     44.46586400	     45.00000000	     44.50185825	      4.83764579	   2406.82454380	  -3541.40609861	     17.95275777	   -179.99999979	   1090.26177960	   -132.78479155	     13.59881248	     11.95192231	      7.83415737	    -45.00000000	    -36.60260595	     45.00000000	    -45.00000000	  -2786.83063904	   -458.74678600	    140.60267597	    144.99650714	   2889.02595805	     13.97449610	      9.90586022	    -18.29704270
      5.05000000	     28.46193620	     30.79293765	     41.56511664	   -117.01314823	    784.63187009	      8.21835902	      3.99560299	     44.25485095	     45.00000000	     44.02962198	      3.48132469	   2407.19538055	  -3541.57757510	     18.03262071	   -179.99999979	   1090.20071553	   -132.44420782	     13.52910173	     11.81655181	      7.91664019	    -45.00000000	    -36.49210115	     45.00000000	    -45.00000000	  -2786.70999093	   -459.00989999	    140.80196778	    144.14529899	   2888.95260316	     15.01796393	      9.94505181	    -18.32296556
      5.06000000	     28.12706819	     31.07073418	     42.33208332	   -112.83540704	    783.17017959	      8.40079702	      4.59523842	     44.11466483	     45.00000000	     43.71456326	      2.24657809	   2407.53993075	  -3541.81631398	     18.05034334	   -179.99999979	   1090.04507267	   -132.05164614	     13.39496829	     11.54918644	      7.67928956	    -45.00000000	    -36.35017000	     45.00000000	    -45.00000000	  -2786.79555542	   -459.27865058	    141.12654630	    143.09958805	   2888.87776569	     16.13637128	      9.91152817	    -18.36231912
      5.07000000	     27.54714993	     31.45057554	     43.57191881	   -108.74103045	    781.82274316	      8.59012230	      4.57308941	     43.95964419	     45.00000000	     43.38780468	      0.38575387	   2408.21316910	  -3541.98429410	     17.91755434	   -179.99999979	   1089.79452563	   -131.66334492	     13.49879967	     11.49547501	      7.97526065	    -45.00000000	    -36.20275973	     45.00000000	    -45.00000000	  -2786.48163240	   -459.68370596	    141.37179406	    142.10625598	   2888.68418395	     17.13785649	      9.94265692	    -18.37670804
      5.08000000	     27.41184918	     31.60632866	     43.89059508	   -104.72945014	    780.59789145	      8.78084101	      5.59098046	     43.82960146	     44.65242447	     43.17317394	     -0.06845040	   2408.59109886	  -3542.25822613	     17.95508480	   -179.99999979	   1089.69477638	   -130.97781074	     13.20157275	     11.02398934	      7.28633502	    -45.00000000	    -36.00092488	     45.00000000	    -45.00000000	  -2786.85598465	   -459.82357115	    141.69466052	    141.07657351	   2888.66576444	     18.36939362	      9.75010886	    -18.43375078
      5.09000000	     27.03352264	     31.77426409	     44.60730553	   -100.80709793	    779.49826895	      8.95935778	      6.07775546	     43.51838573	     44.44613554	     42.81307932	     -1.02007322	   2409.40989005	  -3542.25507900	     17.73515288	   -179.99999979	   1089.56680941	   -129.91234504	     13.19986674	     10.82585149	      6.89962098	    -45.00000000	    -35.81698843	     45.00000000	    -45.00000000	  -2786.81327004	   -459.96799225	    141.85990555	    140.15782527	   2888.51159328	     19.81238699	      9.51812546	    -18.46422023
      5.10000000	     26.15090865	     32.45536671	     46.11051833	    -96.98926530	    778.52974115	      9.12235599	      6.05734046	     43.43040992	     43.32374560	     42.54806726	     -3.25653760	   2410.45077588	  -3542.73486402	     18.21593675	   -179.99999979	   1089.13984912	   -129.19401883	     13.27498423	     10.69998356	      7.54783188	    -45.00000000	    -36.04204097	     45.00000000	    -45.00000000	  -2786.56291196	   -460.33722405	    142.35727657	    138.86991827	   2888.49650158	     20.77484322	      9.63096481	    -18.55915638
